<svg xmlns="http://www.w3.org/2000/svg" viewBox="0 0 215.9 193.7"><path d="M31.1 108.2c0.3 0.2 0.7 0.3 1.1 0.3 1.1 0 2.1-0.9 2.1-2.1 0-0.3-0.1-0.5-0.1-0.7l0 0c-2.9-7.9-4.5-16.4-4.5-25.3 0-19.8 8-37.9 20.8-51.1 0 0 0.1-0.1 0.1-0.1 0 0 0.1-0.1 0.1-0.1l0 0c0.3-0.4 0.4-0.8 0.4-1.3 0 0 0 0 0 0h0V2.1C51 0.9 50.1 0 49 0L23.2 0l0 0c-0.6 0-1.1 0.3-1.5 0.7 -0.5 0.5-1 1-1.6 1.5C7.7 14.6 0 31.8 0 50.8c0 19 7.7 36.1 20.1 48.6C23.4 102.6 27.1 105.6 31.1 108.2L31.1 108.2z"/><path d="M79.2 54.5L79.2 54.5c-1.1 0.1-1.9 1-1.9 2.1 0 0.1 0 0.1 0 0.2l0 0c0 0.1 0 0.1 0 0.2 0 0 0 0 0 0 0.5 5.7 2.8 10.8 6.4 14.9 0 0 0.1 0.1 0.1 0.1 0.2 0.2 0.4 0.5 0.7 0.7 0.1 0.1 0.1 0.1 0.2 0.2 0.2 0.2 0.4 0.4 0.6 0.6 0.1 0.1 0.2 0.2 0.2 0.2 0.2 0.2 0.4 0.4 0.6 0.6 0.1 0.1 0.2 0.2 0.3 0.3 0.2 0.2 0.4 0.3 0.6 0.5 0.1 0.1 0.2 0.2 0.3 0.3 0.2 0.2 0.4 0.3 0.6 0.5 0.1 0.1 0.3 0.2 0.4 0.3 0.2 0.1 0.4 0.3 0.6 0.4 0.1 0.1 0.3 0.2 0.4 0.3 0.2 0.1 0.4 0.2 0.6 0.4 0.2 0.1 0.3 0.2 0.5 0.3 0.2 0.1 0.4 0.2 0.6 0.3 0.2 0.1 0.3 0.2 0.5 0.3 0.2 0.1 0.4 0.2 0.6 0.3 0.2 0.1 0.4 0.2 0.5 0.2 0.2 0.1 0.4 0.2 0.6 0.3 0.2 0.1 0.4 0.2 0.6 0.2 0.2 0.1 0.4 0.1 0.6 0.2 0.2 0.1 0.4 0.1 0.6 0.2 0.2 0.1 0.4 0.1 0.6 0.2 0.2 0.1 0.4 0.1 0.7 0.2 0.2 0.1 0.4 0.1 0.6 0.2 0.2 0.1 0.5 0.1 0.7 0.2 0.2 0 0.4 0.1 0.5 0.1 0.2 0 0.5 0.1 0.7 0.1 0.2 0 0.3 0.1 0.5 0.1 0.3 0 0.5 0.1 0.8 0.1 0.2 0 0.3 0 0.5 0.1 0.3 0 0.6 0.1 0.9 0.1 0.1 0 0.2 0 0.4 0 0.4 0 0.9 0 1.3 0 0 0 0 0 0 0 0 0 0 0 0 0 0.2 0 0.3 0 0.5 0 14.2-0.3 25.6-11.9 25.6-26.1V41.8l0-6.3c0-1.1 0.9-2.1 2.1-2.1l7.2 0c1.1 0 2.1-0.9 2.1-2.1 0-0.2 0-0.4-0.1-0.5 -2.4-11.2-7.4-21.5-14.4-30.1l0 0c-0.4-0.5-0.9-0.8-1.6-0.8 0 0-0.1 0-0.1 0l0 0 -8.9 0 -1.7 0 -8.5 0c-1.1 0-2.1 0.9-2.1 2.1l0 17 0 5.6v3.7l0 0 0 0C103.3 42.2 92.7 53.5 79.2 54.5z"/><path d="M184.6 2.1c-0.4-0.5-0.9-0.7-1.6-0.7 -1.1 0-2.1 0.9-2.1 2.1 0 0.2 0 0.4 0.1 0.6l0 0c0 0 0 0.1 0.1 0.1 0 0 0 0 0 0 5.2 13.4 8.1 28.2 8.1 43.4 0 66-53.5 119.5-119.5 119.5 -15.3 0-30-2.9-43.4-8.2l0 0c-0.2-0.1-0.5-0.1-0.8-0.1 -1.1 0-2.1 0.9-2.1 2.1 0 0.7 0.3 1.2 0.8 1.6l0 0c20.4 19.4 47.8 31.3 78.2 31.3 62.6 0 113.4-50.8 113.4-113.4C215.9 49.9 204.1 22.4 184.6 2.1L184.6 2.1z"/></svg>
